<mxfile host="app.diagrams.net" modified="2022-01-25T14:06:56.211Z" agent="5.0 (Windows NT 10.0; Win64; x64) AppleWebKit/537.36 (KHTML, like Gecko) Chrome/97.0.4692.71 Safari/537.36" etag="Rj30RCa3c3dDBE4pfm0C" version="16.2.7" type="github">
  <diagram id="ByXAxzWkIqk57as5XKIe" name="Page-1">
    <mxGraphModel dx="1980" dy="1853" grid="1" gridSize="10" guides="1" tooltips="1" connect="1" arrows="1" fold="1" page="1" pageScale="1" pageWidth="827" pageHeight="1169" math="0" shadow="0">
      <root>
        <mxCell id="0" />
        <mxCell id="1" parent="0" />
        <mxCell id="ebk4Mf_ng6INkvW07qAW-1" value="product" style="rounded=1;whiteSpace=wrap;html=1;" vertex="1" parent="1">
          <mxGeometry x="-238" y="345" width="120" height="60" as="geometry" />
        </mxCell>
        <mxCell id="ebk4Mf_ng6INkvW07qAW-2" value="Category" style="rounded=1;whiteSpace=wrap;html=1;" vertex="1" parent="1">
          <mxGeometry x="-100" y="50" width="120" height="60" as="geometry" />
        </mxCell>
        <mxCell id="ebk4Mf_ng6INkvW07qAW-3" value="Order" style="rounded=1;whiteSpace=wrap;html=1;" vertex="1" parent="1">
          <mxGeometry x="550" y="495" width="120" height="60" as="geometry" />
        </mxCell>
        <mxCell id="ebk4Mf_ng6INkvW07qAW-4" value="Customer" style="rounded=1;whiteSpace=wrap;html=1;" vertex="1" parent="1">
          <mxGeometry x="510" y="140" width="120" height="60" as="geometry" />
        </mxCell>
        <mxCell id="ebk4Mf_ng6INkvW07qAW-5" value="OrderDetails" style="rounded=1;whiteSpace=wrap;html=1;" vertex="1" parent="1">
          <mxGeometry x="200" y="370" width="120" height="60" as="geometry" />
        </mxCell>
        <mxCell id="ebk4Mf_ng6INkvW07qAW-6" value="&lt;u&gt;CustomerID&lt;/u&gt;" style="ellipse;whiteSpace=wrap;html=1;" vertex="1" parent="1">
          <mxGeometry x="710" y="495" width="105" height="55" as="geometry" />
        </mxCell>
        <mxCell id="ebk4Mf_ng6INkvW07qAW-7" value="&lt;u&gt;ID&lt;/u&gt;" style="ellipse;whiteSpace=wrap;html=1;" vertex="1" parent="1">
          <mxGeometry x="695" y="410" width="100" height="50" as="geometry" />
        </mxCell>
        <mxCell id="ebk4Mf_ng6INkvW07qAW-8" value="&lt;u&gt;Password&lt;/u&gt;" style="ellipse;whiteSpace=wrap;html=1;" vertex="1" parent="1">
          <mxGeometry x="335" y="-80" width="110" height="70" as="geometry" />
        </mxCell>
        <mxCell id="ebk4Mf_ng6INkvW07qAW-9" value="isAdmin" style="ellipse;whiteSpace=wrap;html=1;" vertex="1" parent="1">
          <mxGeometry x="304" y="30" width="110" height="60" as="geometry" />
        </mxCell>
        <mxCell id="ebk4Mf_ng6INkvW07qAW-10" value="Postalcode" style="ellipse;whiteSpace=wrap;html=1;" vertex="1" parent="1">
          <mxGeometry x="660" y="30" width="110" height="60" as="geometry" />
        </mxCell>
        <mxCell id="ebk4Mf_ng6INkvW07qAW-11" value="City" style="ellipse;whiteSpace=wrap;html=1;" vertex="1" parent="1">
          <mxGeometry x="600" y="230" width="90" height="60" as="geometry" />
        </mxCell>
        <mxCell id="ebk4Mf_ng6INkvW07qAW-13" value="Address" style="ellipse;whiteSpace=wrap;html=1;" vertex="1" parent="1">
          <mxGeometry x="700" y="110" width="90" height="60" as="geometry" />
        </mxCell>
        <mxCell id="ebk4Mf_ng6INkvW07qAW-14" value="Country" style="ellipse;whiteSpace=wrap;html=1;" vertex="1" parent="1">
          <mxGeometry x="390" y="200" width="100" height="60" as="geometry" />
        </mxCell>
        <mxCell id="ebk4Mf_ng6INkvW07qAW-15" value="&lt;u&gt;ID&lt;/u&gt;" style="ellipse;whiteSpace=wrap;html=1;" vertex="1" parent="1">
          <mxGeometry x="355" y="100" width="90" height="60" as="geometry" />
        </mxCell>
        <mxCell id="ebk4Mf_ng6INkvW07qAW-17" value="lName" style="ellipse;whiteSpace=wrap;html=1;" vertex="1" parent="1">
          <mxGeometry x="555" y="20" width="90" height="60" as="geometry" />
        </mxCell>
        <mxCell id="ebk4Mf_ng6INkvW07qAW-18" value="fName" style="ellipse;whiteSpace=wrap;html=1;" vertex="1" parent="1">
          <mxGeometry x="430" y="20" width="100" height="60" as="geometry" />
        </mxCell>
        <mxCell id="ebk4Mf_ng6INkvW07qAW-26" value="" style="endArrow=none;html=1;rounded=0;entryX=0;entryY=1;entryDx=0;entryDy=0;exitX=1;exitY=0;exitDx=0;exitDy=0;" edge="1" parent="1" source="ebk4Mf_ng6INkvW07qAW-4" target="ebk4Mf_ng6INkvW07qAW-10">
          <mxGeometry width="50" height="50" relative="1" as="geometry">
            <mxPoint x="370" y="330" as="sourcePoint" />
            <mxPoint x="420" y="280" as="targetPoint" />
          </mxGeometry>
        </mxCell>
        <mxCell id="ebk4Mf_ng6INkvW07qAW-28" value="Phone" style="ellipse;shape=doubleEllipse;whiteSpace=wrap;html=1;" vertex="1" parent="1">
          <mxGeometry x="680" y="190" width="100" height="60" as="geometry" />
        </mxCell>
        <mxCell id="ebk4Mf_ng6INkvW07qAW-29" value="&lt;u&gt;Email&lt;/u&gt;" style="ellipse;shape=doubleEllipse;whiteSpace=wrap;html=1;" vertex="1" parent="1">
          <mxGeometry x="790" y="10" width="100" height="60" as="geometry" />
        </mxCell>
        <mxCell id="ebk4Mf_ng6INkvW07qAW-31" value="&lt;u&gt;ShipperID&lt;/u&gt;" style="ellipse;whiteSpace=wrap;html=1;" vertex="1" parent="1">
          <mxGeometry x="130" y="540" width="100" height="65" as="geometry" />
        </mxCell>
        <mxCell id="ebk4Mf_ng6INkvW07qAW-32" value="ShipperID" style="ellipse;whiteSpace=wrap;html=1;" vertex="1" parent="1">
          <mxGeometry x="790" y="585" width="100" height="60" as="geometry" />
        </mxCell>
        <mxCell id="ebk4Mf_ng6INkvW07qAW-33" value="Sum" style="ellipse;whiteSpace=wrap;html=1;" vertex="1" parent="1">
          <mxGeometry x="550" y="590" width="95" height="60" as="geometry" />
        </mxCell>
        <mxCell id="ebk4Mf_ng6INkvW07qAW-34" value="Date" style="ellipse;whiteSpace=wrap;html=1;" vertex="1" parent="1">
          <mxGeometry x="665" y="585" width="100" height="60" as="geometry" />
        </mxCell>
        <mxCell id="ebk4Mf_ng6INkvW07qAW-35" value="" style="endArrow=none;html=1;rounded=0;entryX=0.5;entryY=1;entryDx=0;entryDy=0;exitX=0.5;exitY=0;exitDx=0;exitDy=0;" edge="1" parent="1" source="ebk4Mf_ng6INkvW07qAW-36" target="ebk4Mf_ng6INkvW07qAW-4">
          <mxGeometry width="50" height="50" relative="1" as="geometry">
            <mxPoint x="580" y="300" as="sourcePoint" />
            <mxPoint x="650" y="390" as="targetPoint" />
          </mxGeometry>
        </mxCell>
        <mxCell id="ebk4Mf_ng6INkvW07qAW-36" value="Places" style="rhombus;whiteSpace=wrap;html=1;" vertex="1" parent="1">
          <mxGeometry x="550" y="330" width="80" height="80" as="geometry" />
        </mxCell>
        <mxCell id="ebk4Mf_ng6INkvW07qAW-38" value="1" style="text;html=1;align=center;verticalAlign=middle;resizable=0;points=[];autosize=1;strokeColor=none;fillColor=none;" vertex="1" parent="1">
          <mxGeometry x="550" y="250" width="20" height="20" as="geometry" />
        </mxCell>
        <mxCell id="ebk4Mf_ng6INkvW07qAW-39" value="N" style="text;html=1;align=center;verticalAlign=middle;resizable=0;points=[];autosize=1;strokeColor=none;fillColor=none;" vertex="1" parent="1">
          <mxGeometry x="570" y="440" width="20" height="20" as="geometry" />
        </mxCell>
        <mxCell id="ebk4Mf_ng6INkvW07qAW-40" value="" style="shape=link;html=1;rounded=0;entryX=0.5;entryY=0;entryDx=0;entryDy=0;exitX=0.5;exitY=1;exitDx=0;exitDy=0;" edge="1" parent="1" source="ebk4Mf_ng6INkvW07qAW-36" target="ebk4Mf_ng6INkvW07qAW-3">
          <mxGeometry relative="1" as="geometry">
            <mxPoint x="540" y="410" as="sourcePoint" />
            <mxPoint x="700" y="410" as="targetPoint" />
          </mxGeometry>
        </mxCell>
        <mxCell id="ebk4Mf_ng6INkvW07qAW-41" value="1" style="resizable=0;html=1;align=right;verticalAlign=bottom;" connectable="0" vertex="1" parent="ebk4Mf_ng6INkvW07qAW-40">
          <mxGeometry x="1" relative="1" as="geometry" />
        </mxCell>
        <mxCell id="ebk4Mf_ng6INkvW07qAW-42" value="Shipper" style="rounded=1;whiteSpace=wrap;html=1;" vertex="1" parent="1">
          <mxGeometry x="220" y="610" width="120" height="60" as="geometry" />
        </mxCell>
        <mxCell id="ebk4Mf_ng6INkvW07qAW-43" value="Info" style="ellipse;whiteSpace=wrap;html=1;" vertex="1" parent="1">
          <mxGeometry x="-238" y="240" width="110" height="70" as="geometry" />
        </mxCell>
        <mxCell id="ebk4Mf_ng6INkvW07qAW-44" value="Quantity" style="ellipse;whiteSpace=wrap;html=1;" vertex="1" parent="1">
          <mxGeometry x="-360" y="210" width="110" height="70" as="geometry" />
        </mxCell>
        <mxCell id="ebk4Mf_ng6INkvW07qAW-45" value="Name" style="ellipse;whiteSpace=wrap;html=1;" vertex="1" parent="1">
          <mxGeometry x="-378" y="450" width="110" height="60" as="geometry" />
        </mxCell>
        <mxCell id="ebk4Mf_ng6INkvW07qAW-46" value="Price" style="ellipse;whiteSpace=wrap;html=1;" vertex="1" parent="1">
          <mxGeometry x="-378" y="370" width="110" height="60" as="geometry" />
        </mxCell>
        <mxCell id="ebk4Mf_ng6INkvW07qAW-47" value="&lt;u&gt;ID&lt;/u&gt;" style="ellipse;whiteSpace=wrap;html=1;" vertex="1" parent="1">
          <mxGeometry x="-378" y="300" width="110" height="50" as="geometry" />
        </mxCell>
        <mxCell id="ebk4Mf_ng6INkvW07qAW-48" value="Time" style="ellipse;whiteSpace=wrap;html=1;" vertex="1" parent="1">
          <mxGeometry x="100" y="650" width="100" height="60" as="geometry" />
        </mxCell>
        <mxCell id="ebk4Mf_ng6INkvW07qAW-49" value="Name" style="ellipse;whiteSpace=wrap;html=1;" vertex="1" parent="1">
          <mxGeometry x="255" y="525" width="100" height="60" as="geometry" />
        </mxCell>
        <mxCell id="ebk4Mf_ng6INkvW07qAW-50" value="" style="endArrow=none;html=1;rounded=0;entryX=0.087;entryY=0;entryDx=0;entryDy=0;entryPerimeter=0;exitX=1;exitY=1;exitDx=0;exitDy=0;" edge="1" parent="1" source="ebk4Mf_ng6INkvW07qAW-31" target="ebk4Mf_ng6INkvW07qAW-42">
          <mxGeometry relative="1" as="geometry">
            <mxPoint x="260" y="410" as="sourcePoint" />
            <mxPoint x="420" y="410" as="targetPoint" />
          </mxGeometry>
        </mxCell>
        <mxCell id="ebk4Mf_ng6INkvW07qAW-51" value="" style="endArrow=none;html=1;rounded=0;exitX=0.038;exitY=0.257;exitDx=0;exitDy=0;exitPerimeter=0;" edge="1" parent="1" source="ebk4Mf_ng6INkvW07qAW-32" target="ebk4Mf_ng6INkvW07qAW-3">
          <mxGeometry relative="1" as="geometry">
            <mxPoint x="225.62834097242057" y="605.3021382223492" as="sourcePoint" />
            <mxPoint x="240.44000000000005" y="620" as="targetPoint" />
          </mxGeometry>
        </mxCell>
        <mxCell id="ebk4Mf_ng6INkvW07qAW-52" value="Sends" style="rhombus;whiteSpace=wrap;html=1;" vertex="1" parent="1">
          <mxGeometry x="400" y="532.5" width="80" height="80" as="geometry" />
        </mxCell>
        <mxCell id="ebk4Mf_ng6INkvW07qAW-55" value="1" style="text;html=1;align=center;verticalAlign=middle;resizable=0;points=[];autosize=1;strokeColor=none;fillColor=none;" vertex="1" parent="1">
          <mxGeometry x="350" y="580" width="20" height="20" as="geometry" />
        </mxCell>
        <mxCell id="ebk4Mf_ng6INkvW07qAW-56" value="" style="shape=link;html=1;rounded=0;entryX=0;entryY=0.5;entryDx=0;entryDy=0;exitX=1;exitY=0.5;exitDx=0;exitDy=0;" edge="1" parent="1" source="ebk4Mf_ng6INkvW07qAW-52" target="ebk4Mf_ng6INkvW07qAW-3">
          <mxGeometry width="100" relative="1" as="geometry">
            <mxPoint x="460" y="410" as="sourcePoint" />
            <mxPoint x="560" y="410" as="targetPoint" />
          </mxGeometry>
        </mxCell>
        <mxCell id="ebk4Mf_ng6INkvW07qAW-57" value="" style="shape=link;html=1;rounded=0;entryX=0.172;entryY=0.689;entryDx=0;entryDy=0;exitX=1;exitY=0.25;exitDx=0;exitDy=0;entryPerimeter=0;" edge="1" parent="1" source="ebk4Mf_ng6INkvW07qAW-42" target="ebk4Mf_ng6INkvW07qAW-52">
          <mxGeometry width="100" relative="1" as="geometry">
            <mxPoint x="490" y="582.5" as="sourcePoint" />
            <mxPoint x="560" y="535" as="targetPoint" />
          </mxGeometry>
        </mxCell>
        <mxCell id="ebk4Mf_ng6INkvW07qAW-58" value="N" style="text;html=1;align=center;verticalAlign=middle;resizable=0;points=[];autosize=1;strokeColor=none;fillColor=none;" vertex="1" parent="1">
          <mxGeometry x="500" y="520" width="20" height="20" as="geometry" />
        </mxCell>
        <mxCell id="ebk4Mf_ng6INkvW07qAW-60" value="Image" style="ellipse;shape=doubleEllipse;whiteSpace=wrap;html=1;" vertex="1" parent="1">
          <mxGeometry x="-238" y="472.5" width="100" height="60" as="geometry" />
        </mxCell>
        <mxCell id="ebk4Mf_ng6INkvW07qAW-63" value="Sum" style="ellipse;whiteSpace=wrap;html=1;" vertex="1" parent="1">
          <mxGeometry x="70" y="280" width="120" height="70" as="geometry" />
        </mxCell>
        <mxCell id="ebk4Mf_ng6INkvW07qAW-64" value="Quantity" style="ellipse;whiteSpace=wrap;html=1;" vertex="1" parent="1">
          <mxGeometry x="220" y="240" width="110" height="70" as="geometry" />
        </mxCell>
        <mxCell id="ebk4Mf_ng6INkvW07qAW-65" value="Includes" style="rhombus;whiteSpace=wrap;html=1;" vertex="1" parent="1">
          <mxGeometry x="-20" y="395" width="80" height="80" as="geometry" />
        </mxCell>
        <mxCell id="ebk4Mf_ng6INkvW07qAW-66" value="Includs" style="rhombus;whiteSpace=wrap;html=1;" vertex="1" parent="1">
          <mxGeometry x="414" y="380" width="80" height="80" as="geometry" />
        </mxCell>
        <mxCell id="ebk4Mf_ng6INkvW07qAW-68" value="" style="shape=link;html=1;rounded=0;entryX=0;entryY=0;entryDx=0;entryDy=0;" edge="1" parent="1" source="ebk4Mf_ng6INkvW07qAW-66" target="ebk4Mf_ng6INkvW07qAW-3">
          <mxGeometry width="100" relative="1" as="geometry">
            <mxPoint x="250" y="410" as="sourcePoint" />
            <mxPoint x="550" y="490" as="targetPoint" />
          </mxGeometry>
        </mxCell>
        <mxCell id="ebk4Mf_ng6INkvW07qAW-69" value="" style="endArrow=none;html=1;rounded=0;entryX=0;entryY=0;entryDx=0;entryDy=0;exitX=1;exitY=0.5;exitDx=0;exitDy=0;" edge="1" parent="1" source="ebk4Mf_ng6INkvW07qAW-5" target="ebk4Mf_ng6INkvW07qAW-66">
          <mxGeometry width="50" height="50" relative="1" as="geometry">
            <mxPoint x="280" y="430" as="sourcePoint" />
            <mxPoint x="330" y="380" as="targetPoint" />
          </mxGeometry>
        </mxCell>
        <mxCell id="ebk4Mf_ng6INkvW07qAW-70" value="1" style="text;html=1;align=center;verticalAlign=middle;resizable=0;points=[];autosize=1;strokeColor=none;fillColor=none;" vertex="1" parent="1">
          <mxGeometry x="500" y="440" width="20" height="20" as="geometry" />
        </mxCell>
        <mxCell id="ebk4Mf_ng6INkvW07qAW-71" value="1" style="text;html=1;align=center;verticalAlign=middle;resizable=0;points=[];autosize=1;strokeColor=none;fillColor=none;" vertex="1" parent="1">
          <mxGeometry x="350" y="370" width="20" height="20" as="geometry" />
        </mxCell>
        <mxCell id="ebk4Mf_ng6INkvW07qAW-73" value="1" style="text;html=1;align=center;verticalAlign=middle;resizable=0;points=[];autosize=1;strokeColor=none;fillColor=none;" vertex="1" parent="1">
          <mxGeometry x="110" y="390" width="20" height="20" as="geometry" />
        </mxCell>
        <mxCell id="ebk4Mf_ng6INkvW07qAW-75" value="" style="endArrow=none;html=1;rounded=0;entryX=1;entryY=0.5;entryDx=0;entryDy=0;" edge="1" parent="1" target="ebk4Mf_ng6INkvW07qAW-1">
          <mxGeometry width="50" height="50" relative="1" as="geometry">
            <mxPoint x="-20" y="430" as="sourcePoint" />
            <mxPoint x="30" y="380" as="targetPoint" />
          </mxGeometry>
        </mxCell>
        <mxCell id="ebk4Mf_ng6INkvW07qAW-76" value="1" style="text;html=1;align=center;verticalAlign=middle;resizable=0;points=[];autosize=1;strokeColor=none;fillColor=none;" vertex="1" parent="1">
          <mxGeometry x="-80" y="370" width="20" height="20" as="geometry" />
        </mxCell>
        <mxCell id="ebk4Mf_ng6INkvW07qAW-77" value="" style="shape=link;html=1;rounded=0;entryX=0;entryY=0.75;entryDx=0;entryDy=0;exitX=1;exitY=0.5;exitDx=0;exitDy=0;" edge="1" parent="1" source="ebk4Mf_ng6INkvW07qAW-65" target="ebk4Mf_ng6INkvW07qAW-5">
          <mxGeometry width="100" relative="1" as="geometry">
            <mxPoint x="-50" y="410" as="sourcePoint" />
            <mxPoint x="50" y="410" as="targetPoint" />
          </mxGeometry>
        </mxCell>
        <mxCell id="ebk4Mf_ng6INkvW07qAW-78" value="Name" style="ellipse;whiteSpace=wrap;html=1;" vertex="1" parent="1">
          <mxGeometry x="-260" y="30" width="110" height="70" as="geometry" />
        </mxCell>
        <mxCell id="ebk4Mf_ng6INkvW07qAW-79" value="&lt;u&gt;ID&lt;/u&gt;" style="ellipse;whiteSpace=wrap;html=1;" vertex="1" parent="1">
          <mxGeometry x="-110" y="-50" width="110" height="60" as="geometry" />
        </mxCell>
        <mxCell id="ebk4Mf_ng6INkvW07qAW-81" value="Has" style="rhombus;whiteSpace=wrap;html=1;" vertex="1" parent="1">
          <mxGeometry x="-90" y="170" width="80" height="80" as="geometry" />
        </mxCell>
        <mxCell id="ebk4Mf_ng6INkvW07qAW-82" value="" style="endArrow=none;html=1;rounded=0;exitX=1;exitY=1;exitDx=0;exitDy=0;" edge="1" parent="1" source="ebk4Mf_ng6INkvW07qAW-44">
          <mxGeometry width="50" height="50" relative="1" as="geometry">
            <mxPoint x="-120" y="230" as="sourcePoint" />
            <mxPoint x="-220" y="340" as="targetPoint" />
          </mxGeometry>
        </mxCell>
        <mxCell id="ebk4Mf_ng6INkvW07qAW-83" value="" style="endArrow=none;html=1;rounded=0;exitX=1;exitY=0.5;exitDx=0;exitDy=0;entryX=0;entryY=0;entryDx=0;entryDy=0;" edge="1" parent="1" source="ebk4Mf_ng6INkvW07qAW-47" target="ebk4Mf_ng6INkvW07qAW-1">
          <mxGeometry width="50" height="50" relative="1" as="geometry">
            <mxPoint x="-120" y="230" as="sourcePoint" />
            <mxPoint x="-230" y="340" as="targetPoint" />
          </mxGeometry>
        </mxCell>
        <mxCell id="ebk4Mf_ng6INkvW07qAW-84" value="" style="endArrow=none;html=1;rounded=0;exitX=0.35;exitY=0.033;exitDx=0;exitDy=0;exitPerimeter=0;" edge="1" parent="1" source="ebk4Mf_ng6INkvW07qAW-1" target="ebk4Mf_ng6INkvW07qAW-43">
          <mxGeometry width="50" height="50" relative="1" as="geometry">
            <mxPoint x="-120" y="230" as="sourcePoint" />
            <mxPoint x="-70" y="180" as="targetPoint" />
          </mxGeometry>
        </mxCell>
        <mxCell id="ebk4Mf_ng6INkvW07qAW-85" value="" style="endArrow=none;html=1;rounded=0;entryX=0;entryY=0.5;entryDx=0;entryDy=0;exitX=0.955;exitY=0.714;exitDx=0;exitDy=0;exitPerimeter=0;" edge="1" parent="1" source="ebk4Mf_ng6INkvW07qAW-78" target="ebk4Mf_ng6INkvW07qAW-2">
          <mxGeometry width="50" height="50" relative="1" as="geometry">
            <mxPoint x="-140" y="80" as="sourcePoint" />
            <mxPoint x="-70" y="180" as="targetPoint" />
          </mxGeometry>
        </mxCell>
        <mxCell id="ebk4Mf_ng6INkvW07qAW-86" value="" style="endArrow=none;html=1;rounded=0;entryX=0.5;entryY=1;entryDx=0;entryDy=0;exitX=0.358;exitY=0.033;exitDx=0;exitDy=0;exitPerimeter=0;" edge="1" parent="1" source="ebk4Mf_ng6INkvW07qAW-2" target="ebk4Mf_ng6INkvW07qAW-79">
          <mxGeometry width="50" height="50" relative="1" as="geometry">
            <mxPoint x="-120" y="230" as="sourcePoint" />
            <mxPoint x="-70" y="180" as="targetPoint" />
          </mxGeometry>
        </mxCell>
        <mxCell id="ebk4Mf_ng6INkvW07qAW-87" value="" style="endArrow=none;html=1;rounded=0;entryX=0.5;entryY=1;entryDx=0;entryDy=0;exitX=1;exitY=0.25;exitDx=0;exitDy=0;" edge="1" parent="1" source="ebk4Mf_ng6INkvW07qAW-1" target="ebk4Mf_ng6INkvW07qAW-81">
          <mxGeometry width="50" height="50" relative="1" as="geometry">
            <mxPoint x="-120" y="230" as="sourcePoint" />
            <mxPoint x="-70" y="180" as="targetPoint" />
          </mxGeometry>
        </mxCell>
        <mxCell id="ebk4Mf_ng6INkvW07qAW-89" value="" style="endArrow=none;html=1;rounded=0;exitX=1;exitY=0;exitDx=0;exitDy=0;" edge="1" parent="1" source="ebk4Mf_ng6INkvW07qAW-45" target="ebk4Mf_ng6INkvW07qAW-1">
          <mxGeometry width="50" height="50" relative="1" as="geometry">
            <mxPoint x="-120" y="230" as="sourcePoint" />
            <mxPoint x="-70" y="180" as="targetPoint" />
          </mxGeometry>
        </mxCell>
        <mxCell id="ebk4Mf_ng6INkvW07qAW-90" value="" style="endArrow=none;html=1;fontFamily=Helvetica;fontSize=11;fontColor=rgb(0, 0, 0);align=center;strokeColor=rgb(0, 0, 0);exitX=1;exitY=0.5;exitDx=0;exitDy=0;" edge="1" parent="1" source="ebk4Mf_ng6INkvW07qAW-46">
          <mxGeometry width="50" height="50" relative="1" as="geometry">
            <mxPoint x="-120" y="230" as="sourcePoint" />
            <mxPoint x="-240" y="380" as="targetPoint" />
          </mxGeometry>
        </mxCell>
        <mxCell id="ebk4Mf_ng6INkvW07qAW-91" value="" style="shape=link;html=1;rounded=0;entryX=0.5;entryY=1;entryDx=0;entryDy=0;exitX=0.5;exitY=0;exitDx=0;exitDy=0;" edge="1" parent="1" source="ebk4Mf_ng6INkvW07qAW-81" target="ebk4Mf_ng6INkvW07qAW-2">
          <mxGeometry width="100" relative="1" as="geometry">
            <mxPoint x="-150" y="210" as="sourcePoint" />
            <mxPoint x="-50" y="210" as="targetPoint" />
          </mxGeometry>
        </mxCell>
        <mxCell id="ebk4Mf_ng6INkvW07qAW-92" value="1" style="text;html=1;align=center;verticalAlign=middle;resizable=0;points=[];autosize=1;strokeColor=none;fillColor=none;" vertex="1" parent="1">
          <mxGeometry x="-70" y="130" width="20" height="20" as="geometry" />
        </mxCell>
        <mxCell id="ebk4Mf_ng6INkvW07qAW-93" value="N" style="text;html=1;align=center;verticalAlign=middle;resizable=0;points=[];autosize=1;strokeColor=none;fillColor=none;" vertex="1" parent="1">
          <mxGeometry x="-110" y="280" width="20" height="20" as="geometry" />
        </mxCell>
        <mxCell id="ebk4Mf_ng6INkvW07qAW-94" value="" style="endArrow=none;html=1;rounded=0;entryX=0;entryY=1;entryDx=0;entryDy=0;" edge="1" parent="1" target="ebk4Mf_ng6INkvW07qAW-4">
          <mxGeometry width="50" height="50" relative="1" as="geometry">
            <mxPoint x="490" y="220" as="sourcePoint" />
            <mxPoint x="450" y="250" as="targetPoint" />
          </mxGeometry>
        </mxCell>
        <mxCell id="ebk4Mf_ng6INkvW07qAW-95" value="" style="endArrow=none;html=1;rounded=0;entryX=1;entryY=0.5;entryDx=0;entryDy=0;" edge="1" parent="1" source="ebk4Mf_ng6INkvW07qAW-13" target="ebk4Mf_ng6INkvW07qAW-4">
          <mxGeometry width="50" height="50" relative="1" as="geometry">
            <mxPoint x="540" y="280" as="sourcePoint" />
            <mxPoint x="590" y="230" as="targetPoint" />
          </mxGeometry>
        </mxCell>
        <mxCell id="ebk4Mf_ng6INkvW07qAW-96" value="" style="endArrow=none;html=1;rounded=0;entryX=0.902;entryY=1.017;entryDx=0;entryDy=0;entryPerimeter=0;exitX=0.37;exitY=0.05;exitDx=0;exitDy=0;exitPerimeter=0;" edge="1" parent="1" source="ebk4Mf_ng6INkvW07qAW-11" target="ebk4Mf_ng6INkvW07qAW-4">
          <mxGeometry width="50" height="50" relative="1" as="geometry">
            <mxPoint x="540" y="280" as="sourcePoint" />
            <mxPoint x="590" y="230" as="targetPoint" />
          </mxGeometry>
        </mxCell>
        <mxCell id="ebk4Mf_ng6INkvW07qAW-97" value="?" style="rhombus;whiteSpace=wrap;html=1;" vertex="1" parent="1">
          <mxGeometry x="110" y="140" width="80" height="80" as="geometry" />
        </mxCell>
        <mxCell id="ebk4Mf_ng6INkvW07qAW-98" value="" style="endArrow=none;html=1;rounded=0;entryX=0.634;entryY=0.02;entryDx=0;entryDy=0;entryPerimeter=0;exitX=0.5;exitY=1;exitDx=0;exitDy=0;" edge="1" parent="1" source="ebk4Mf_ng6INkvW07qAW-64" target="ebk4Mf_ng6INkvW07qAW-5">
          <mxGeometry width="50" height="50" relative="1" as="geometry">
            <mxPoint x="40" y="270" as="sourcePoint" />
            <mxPoint x="90" y="220" as="targetPoint" />
          </mxGeometry>
        </mxCell>
        <mxCell id="ebk4Mf_ng6INkvW07qAW-99" value="" style="endArrow=none;html=1;rounded=0;entryX=0;entryY=0;entryDx=0;entryDy=0;" edge="1" parent="1" target="ebk4Mf_ng6INkvW07qAW-5">
          <mxGeometry width="50" height="50" relative="1" as="geometry">
            <mxPoint x="160" y="350" as="sourcePoint" />
            <mxPoint x="90" y="220" as="targetPoint" />
          </mxGeometry>
        </mxCell>
        <mxCell id="ebk4Mf_ng6INkvW07qAW-100" value="" style="endArrow=none;html=1;rounded=0;exitX=0.5;exitY=0;exitDx=0;exitDy=0;entryX=0.5;entryY=1;entryDx=0;entryDy=0;" edge="1" parent="1" source="ebk4Mf_ng6INkvW07qAW-60" target="ebk4Mf_ng6INkvW07qAW-1">
          <mxGeometry width="50" height="50" relative="1" as="geometry">
            <mxPoint x="40" y="270" as="sourcePoint" />
            <mxPoint x="90" y="220" as="targetPoint" />
          </mxGeometry>
        </mxCell>
        <mxCell id="ebk4Mf_ng6INkvW07qAW-101" value="" style="endArrow=none;html=1;rounded=0;entryX=0;entryY=0.75;entryDx=0;entryDy=0;exitX=1;exitY=0.5;exitDx=0;exitDy=0;" edge="1" parent="1" source="ebk4Mf_ng6INkvW07qAW-48" target="ebk4Mf_ng6INkvW07qAW-42">
          <mxGeometry width="50" height="50" relative="1" as="geometry">
            <mxPoint x="40" y="400" as="sourcePoint" />
            <mxPoint x="90" y="350" as="targetPoint" />
          </mxGeometry>
        </mxCell>
        <mxCell id="ebk4Mf_ng6INkvW07qAW-102" value="" style="endArrow=none;html=1;rounded=0;entryX=0.5;entryY=0;entryDx=0;entryDy=0;exitX=0.398;exitY=1.007;exitDx=0;exitDy=0;exitPerimeter=0;" edge="1" parent="1" source="ebk4Mf_ng6INkvW07qAW-49" target="ebk4Mf_ng6INkvW07qAW-42">
          <mxGeometry width="50" height="50" relative="1" as="geometry">
            <mxPoint x="40" y="400" as="sourcePoint" />
            <mxPoint x="90" y="350" as="targetPoint" />
          </mxGeometry>
        </mxCell>
        <mxCell id="ebk4Mf_ng6INkvW07qAW-103" value="" style="endArrow=none;html=1;rounded=0;" edge="1" parent="1">
          <mxGeometry width="50" height="50" relative="1" as="geometry">
            <mxPoint x="490" y="280" as="sourcePoint" />
            <mxPoint x="540" y="230" as="targetPoint" />
          </mxGeometry>
        </mxCell>
        <mxCell id="ebk4Mf_ng6INkvW07qAW-104" value="" style="endArrow=none;html=1;rounded=0;" edge="1" parent="1">
          <mxGeometry width="50" height="50" relative="1" as="geometry">
            <mxPoint x="490" y="280" as="sourcePoint" />
            <mxPoint x="540" y="230" as="targetPoint" />
          </mxGeometry>
        </mxCell>
        <mxCell id="ebk4Mf_ng6INkvW07qAW-105" value="" style="endArrow=none;html=1;rounded=0;exitX=0;exitY=0;exitDx=0;exitDy=0;entryX=0.75;entryY=1;entryDx=0;entryDy=0;" edge="1" parent="1" source="ebk4Mf_ng6INkvW07qAW-34" target="ebk4Mf_ng6INkvW07qAW-3">
          <mxGeometry width="50" height="50" relative="1" as="geometry">
            <mxPoint x="490" y="280" as="sourcePoint" />
            <mxPoint x="540" y="230" as="targetPoint" />
          </mxGeometry>
        </mxCell>
        <mxCell id="ebk4Mf_ng6INkvW07qAW-106" value="" style="endArrow=none;html=1;rounded=0;" edge="1" parent="1" source="ebk4Mf_ng6INkvW07qAW-33">
          <mxGeometry width="50" height="50" relative="1" as="geometry">
            <mxPoint x="490" y="280" as="sourcePoint" />
            <mxPoint x="590" y="550" as="targetPoint" />
          </mxGeometry>
        </mxCell>
        <mxCell id="ebk4Mf_ng6INkvW07qAW-107" value="" style="endArrow=none;html=1;rounded=0;entryX=0;entryY=0.5;entryDx=0;entryDy=0;exitX=1;exitY=0.25;exitDx=0;exitDy=0;" edge="1" parent="1" source="ebk4Mf_ng6INkvW07qAW-3" target="ebk4Mf_ng6INkvW07qAW-6">
          <mxGeometry width="50" height="50" relative="1" as="geometry">
            <mxPoint x="490" y="280" as="sourcePoint" />
            <mxPoint x="540" y="230" as="targetPoint" />
          </mxGeometry>
        </mxCell>
        <mxCell id="ebk4Mf_ng6INkvW07qAW-108" value="" style="endArrow=none;html=1;rounded=0;entryX=0;entryY=0.5;entryDx=0;entryDy=0;exitX=0.939;exitY=0.019;exitDx=0;exitDy=0;exitPerimeter=0;" edge="1" parent="1" source="ebk4Mf_ng6INkvW07qAW-3" target="ebk4Mf_ng6INkvW07qAW-7">
          <mxGeometry width="50" height="50" relative="1" as="geometry">
            <mxPoint x="490" y="280" as="sourcePoint" />
            <mxPoint x="540" y="230" as="targetPoint" />
          </mxGeometry>
        </mxCell>
        <mxCell id="ebk4Mf_ng6INkvW07qAW-109" value="" style="endArrow=none;html=1;rounded=0;entryX=0.016;entryY=0.665;entryDx=0;entryDy=0;entryPerimeter=0;exitX=1;exitY=0.5;exitDx=0;exitDy=0;" edge="1" parent="1">
          <mxGeometry width="50" height="50" relative="1" as="geometry">
            <mxPoint x="770" y="62" as="sourcePoint" />
            <mxPoint x="791.5999999999999" y="51.90000000000009" as="targetPoint" />
          </mxGeometry>
        </mxCell>
        <mxCell id="ebk4Mf_ng6INkvW07qAW-110" value="" style="endArrow=none;html=1;rounded=0;entryX=0;entryY=0;entryDx=0;entryDy=0;" edge="1" parent="1" source="ebk4Mf_ng6INkvW07qAW-9" target="ebk4Mf_ng6INkvW07qAW-4">
          <mxGeometry width="50" height="50" relative="1" as="geometry">
            <mxPoint x="490" y="280" as="sourcePoint" />
            <mxPoint x="540" y="230" as="targetPoint" />
          </mxGeometry>
        </mxCell>
        <mxCell id="ebk4Mf_ng6INkvW07qAW-111" value="" style="endArrow=none;html=1;rounded=0;entryX=0.377;entryY=0.972;entryDx=0;entryDy=0;entryPerimeter=0;" edge="1" parent="1" source="ebk4Mf_ng6INkvW07qAW-4" target="ebk4Mf_ng6INkvW07qAW-17">
          <mxGeometry width="50" height="50" relative="1" as="geometry">
            <mxPoint x="570" y="130" as="sourcePoint" />
            <mxPoint x="540" y="230" as="targetPoint" />
          </mxGeometry>
        </mxCell>
        <mxCell id="ebk4Mf_ng6INkvW07qAW-112" value="" style="endArrow=none;html=1;rounded=0;exitX=0.131;exitY=-0.065;exitDx=0;exitDy=0;exitPerimeter=0;" edge="1" parent="1" source="ebk4Mf_ng6INkvW07qAW-4">
          <mxGeometry width="50" height="50" relative="1" as="geometry">
            <mxPoint x="470" y="120" as="sourcePoint" />
            <mxPoint x="520" y="70" as="targetPoint" />
          </mxGeometry>
        </mxCell>
        <mxCell id="ebk4Mf_ng6INkvW07qAW-113" value="" style="endArrow=none;html=1;rounded=0;entryX=0;entryY=0.25;entryDx=0;entryDy=0;exitX=0.959;exitY=0.735;exitDx=0;exitDy=0;exitPerimeter=0;" edge="1" parent="1" source="ebk4Mf_ng6INkvW07qAW-15" target="ebk4Mf_ng6INkvW07qAW-4">
          <mxGeometry width="50" height="50" relative="1" as="geometry">
            <mxPoint x="450" y="140" as="sourcePoint" />
            <mxPoint x="540" y="230" as="targetPoint" />
          </mxGeometry>
        </mxCell>
      </root>
    </mxGraphModel>
  </diagram>
</mxfile>
